<mxfile host="app.diagrams.net" modified="2023-06-21T11:57:12.989Z" agent="Mozilla/5.0 (X11; Ubuntu; Linux x86_64; rv:109.0) Gecko/20100101 Firefox/114.0" etag="twsS_vJ5M7pRYntM2yGy" version="21.5.0" type="device">
  <diagram name="Page-1" id="NWxCv71-BSI1NSoIphPn">
    <mxGraphModel dx="1434" dy="766" grid="1" gridSize="10" guides="1" tooltips="1" connect="1" arrows="1" fold="1" page="1" pageScale="1" pageWidth="827" pageHeight="1169" math="0" shadow="0">
      <root>
        <mxCell id="0" />
        <mxCell id="1" parent="0" />
        <mxCell id="iDXjAMpNUe32oRCLMMjr-1" value="&lt;div style=&quot;font-size: 31px;&quot; align=&quot;left&quot;&gt;&lt;font style=&quot;font-size: 31px;&quot;&gt;&lt;font style=&quot;font-size: 31px;&quot; color=&quot;#54d6f0&quot;&gt;selector&lt;/font&gt; &lt;font style=&quot;font-size: 31px;&quot; color=&quot;#ffff33&quot;&gt;{&lt;/font&gt;&lt;/font&gt;&lt;/div&gt;&lt;div style=&quot;font-size: 31px;&quot; align=&quot;left&quot;&gt;&lt;font style=&quot;font-size: 31px;&quot;&gt;&lt;span style=&quot;white-space: pre;&quot;&gt;&#x9;&lt;/span&gt;&lt;font style=&quot;font-size: 31px;&quot; color=&quot;#ff9933&quot;&gt;propiedad&lt;/font&gt;&lt;font style=&quot;font-size: 31px;&quot; color=&quot;#ff0000&quot;&gt;:&lt;/font&gt; &lt;font style=&quot;font-size: 31px;&quot; color=&quot;#26f041&quot;&gt;valor&lt;/font&gt;&lt;font style=&quot;font-size: 31px;&quot; color=&quot;#ff00ff&quot;&gt;;&lt;/font&gt;&lt;/font&gt;&lt;/div&gt;&lt;div style=&quot;font-size: 31px;&quot; align=&quot;left&quot;&gt;&lt;font style=&quot;font-size: 31px;&quot;&gt;&lt;span style=&quot;white-space: pre;&quot;&gt;&#x9;&lt;/span&gt;&lt;font style=&quot;font-size: 31px;&quot; color=&quot;#ff9933&quot;&gt;propiedad&lt;/font&gt;&lt;font style=&quot;font-size: 31px;&quot; color=&quot;#ff0000&quot;&gt;:&lt;/font&gt;&lt;font style=&quot;font-size: 31px;&quot; color=&quot;#26f041&quot;&gt;valor&lt;/font&gt;&lt;font style=&quot;font-size: 31px;&quot; color=&quot;#ff00ff&quot;&gt;;&lt;/font&gt;&lt;/font&gt;&lt;/div&gt;&lt;div style=&quot;font-size: 31px;&quot; align=&quot;left&quot;&gt;&lt;font style=&quot;font-size: 31px;&quot; color=&quot;#ffff33&quot;&gt;}&lt;/font&gt;&lt;font style=&quot;font-size: 31px;&quot; color=&quot;#ffff33&quot;&gt;&lt;br&gt;&lt;/font&gt;&lt;/div&gt;" style="text;html=1;strokeColor=none;fillColor=none;align=center;verticalAlign=middle;whiteSpace=wrap;rounded=0;" vertex="1" parent="1">
          <mxGeometry x="110" y="240" width="420" height="240" as="geometry" />
        </mxCell>
        <mxCell id="iDXjAMpNUe32oRCLMMjr-3" value="" style="endArrow=classic;html=1;rounded=0;strokeColor=#54D6F0;" edge="1" parent="1">
          <mxGeometry width="50" height="50" relative="1" as="geometry">
            <mxPoint x="220" y="210" as="sourcePoint" />
            <mxPoint x="220" y="270" as="targetPoint" />
          </mxGeometry>
        </mxCell>
        <mxCell id="iDXjAMpNUe32oRCLMMjr-4" value="" style="endArrow=classic;html=1;rounded=0;strokeColor=#FFFF33;" edge="1" parent="1">
          <mxGeometry width="50" height="50" relative="1" as="geometry">
            <mxPoint x="317.08" y="269" as="sourcePoint" />
            <mxPoint x="301" y="295" as="targetPoint" />
          </mxGeometry>
        </mxCell>
        <mxCell id="iDXjAMpNUe32oRCLMMjr-5" value="" style="endArrow=classic;html=1;rounded=0;strokeColor=#FF9933;" edge="1" parent="1">
          <mxGeometry width="50" height="50" relative="1" as="geometry">
            <mxPoint x="353" y="475" as="sourcePoint" />
            <mxPoint x="353" y="397" as="targetPoint" />
          </mxGeometry>
        </mxCell>
        <mxCell id="iDXjAMpNUe32oRCLMMjr-6" value="" style="endArrow=classic;html=1;rounded=0;strokeColor=#FFFF33;" edge="1" parent="1">
          <mxGeometry width="50" height="50" relative="1" as="geometry">
            <mxPoint x="173.08000000000004" y="479" as="sourcePoint" />
            <mxPoint x="173" y="439" as="targetPoint" />
          </mxGeometry>
        </mxCell>
        <mxCell id="iDXjAMpNUe32oRCLMMjr-7" value="" style="endArrow=classic;html=1;rounded=0;strokeColor=#FF0000;exitX=0.152;exitY=0.001;exitDx=0;exitDy=0;exitPerimeter=0;" edge="1" parent="1" source="iDXjAMpNUe32oRCLMMjr-16">
          <mxGeometry width="50" height="50" relative="1" as="geometry">
            <mxPoint x="383" y="441" as="sourcePoint" />
            <mxPoint x="390" y="394" as="targetPoint" />
          </mxGeometry>
        </mxCell>
        <mxCell id="iDXjAMpNUe32oRCLMMjr-9" value="" style="endArrow=classic;html=1;rounded=0;strokeColor=#FF00FF;" edge="1" parent="1">
          <mxGeometry width="50" height="50" relative="1" as="geometry">
            <mxPoint x="499" y="295" as="sourcePoint" />
            <mxPoint x="480" y="338" as="targetPoint" />
          </mxGeometry>
        </mxCell>
        <mxCell id="iDXjAMpNUe32oRCLMMjr-11" value="" style="endArrow=classic;html=1;rounded=0;strokeColor=#26F041;exitX=0.451;exitY=1.048;exitDx=0;exitDy=0;exitPerimeter=0;" edge="1" parent="1" source="iDXjAMpNUe32oRCLMMjr-14">
          <mxGeometry width="50" height="50" relative="1" as="geometry">
            <mxPoint x="430" y="260" as="sourcePoint" />
            <mxPoint x="430" y="320" as="targetPoint" />
          </mxGeometry>
        </mxCell>
        <mxCell id="iDXjAMpNUe32oRCLMMjr-12" value="Etiqueta/clase/id &lt;br&gt;para aplicar el estilo" style="text;html=1;strokeColor=#54D6F0;fillColor=none;align=center;verticalAlign=middle;whiteSpace=wrap;rounded=1;" vertex="1" parent="1">
          <mxGeometry x="160" y="160" width="120" height="50" as="geometry" />
        </mxCell>
        <mxCell id="iDXjAMpNUe32oRCLMMjr-13" value="apertura de llave" style="text;html=1;strokeColor=#FFFF33;fillColor=none;align=center;verticalAlign=middle;whiteSpace=wrap;rounded=1;" vertex="1" parent="1">
          <mxGeometry x="262" y="237" width="110" height="30" as="geometry" />
        </mxCell>
        <mxCell id="iDXjAMpNUe32oRCLMMjr-14" value="valor concreto asignable" style="text;html=1;strokeColor=#26F041;fillColor=none;align=center;verticalAlign=middle;whiteSpace=wrap;rounded=1;" vertex="1" parent="1">
          <mxGeometry x="380" y="180" width="110" height="40" as="geometry" />
        </mxCell>
        <mxCell id="iDXjAMpNUe32oRCLMMjr-15" value="terminación de regla" style="text;html=1;strokeColor=#FF00FF;fillColor=none;align=center;verticalAlign=middle;whiteSpace=wrap;rounded=1;" vertex="1" parent="1">
          <mxGeometry x="483" y="254" width="110" height="40" as="geometry" />
        </mxCell>
        <mxCell id="iDXjAMpNUe32oRCLMMjr-16" value="símbolo de asignación" style="text;html=1;strokeColor=#FF0000;fillColor=none;align=center;verticalAlign=middle;whiteSpace=wrap;rounded=1;" vertex="1" parent="1">
          <mxGeometry x="450" y="435" width="110" height="40" as="geometry" />
        </mxCell>
        <mxCell id="iDXjAMpNUe32oRCLMMjr-17" value="característica principal" style="text;html=1;strokeColor=#FF9933;fillColor=none;align=center;verticalAlign=middle;whiteSpace=wrap;rounded=1;" vertex="1" parent="1">
          <mxGeometry x="300" y="475" width="110" height="40" as="geometry" />
        </mxCell>
        <mxCell id="iDXjAMpNUe32oRCLMMjr-18" value="cierre de llave" style="text;html=1;strokeColor=#FFFF33;fillColor=none;align=center;verticalAlign=middle;whiteSpace=wrap;rounded=1;" vertex="1" parent="1">
          <mxGeometry x="173" y="475" width="110" height="30" as="geometry" />
        </mxCell>
      </root>
    </mxGraphModel>
  </diagram>
</mxfile>
